<?xml version="1.0" encoding="UTF-8" standalone="no"?>
<!-- Created with Inkscape (http://www.inkscape.org/) -->

<svg
   width="68.886017mm"
   height="39.135807mm"
   viewBox="0 0 68.886017 39.135807"
   version="1.1"
   id="svg1"
   xml:space="preserve"
   xmlns="http://www.w3.org/2000/svg"
   xmlns:svg="http://www.w3.org/2000/svg"><defs
     id="defs1" /><g
     id="layer1"
     transform="translate(-106.93515,-123.26612)"><g
       id="g13133"><path
         style="fill:#c3a962;fill-opacity:1"
         d="m 156.64245,132.91013 c -0.0476,-0.2307 -0.12517,-0.76725 -0.17235,-1.19233 -0.0831,-0.74863 -0.0532,-0.80135 0.953,-1.67937 0.57134,-0.49857 1.1266,-0.90764 1.23392,-0.90906 0.17871,-0.002 2.46846,1.5977 2.46846,1.72494 0,0.10254 -3.64594,2.23948 -4.02301,2.35795 -0.29025,0.0912 -0.39274,0.0239 -0.46002,-0.30213 z"
         id="path13133" /><path
         style="fill:#c3a962;fill-opacity:1"
         d="m 125.3966,133.09883 c -0.20206,-0.10896 -1.13687,-0.6469 -2.07734,-1.19541 -1.64453,-0.95912 -1.69798,-1.01037 -1.39707,-1.3395 0.37549,-0.41071 1.96174,-1.43736 2.22081,-1.43736 0.10109,0 0.64881,0.42958 1.21716,0.95462 l 1.03336,0.95461 -0.13106,1.0763 c -0.13928,1.14369 -0.27918,1.30312 -0.86586,0.98674 z"
         id="path13132" /><path
         style="fill:#c3a962;fill-opacity:1"
         d="m 151.1965,133.11753 c -0.51011,-0.50492 -0.33456,-1.01749 0.61956,-1.80901 0.42193,-0.35002 1.16803,-1.00811 1.658,-1.46242 0.85927,-0.79672 0.89437,-0.86924 0.98973,-2.04521 l 0.0989,-1.2192 1.30668,-1.0365 c 0.71867,-0.57007 1.34801,-1.08165 1.39853,-1.13684 0.0505,-0.0552 0.27784,-0.25621 0.50516,-0.44672 l 0.41332,-0.34639 v 2.35719 2.35718 l -2.58912,2.26223 c -3.57556,3.12415 -3.71518,3.20428 -4.40073,2.52569 z"
         id="path13131" /><path
         style="fill:#c3a962;fill-opacity:1"
         d="m 129.97064,132.96721 c -0.39403,-0.2878 -1.29722,-1.04467 -2.00708,-1.68194 -0.70987,-0.63726 -1.76382,-1.55726 -2.34213,-2.04444 l -1.05146,-0.88579 v -2.34172 c 0,-1.28795 0.0521,-2.34172 0.11586,-2.34172 0.0637,0 0.72056,0.52413 1.45966,1.16473 0.73909,0.6406 1.53026,1.294 1.75815,1.45199 0.34324,0.23798 0.42789,0.49778 0.49325,1.51388 l 0.0789,1.2266 1.72101,1.61223 c 0.94655,0.88672 1.72101,1.72695 1.72101,1.86718 0,0.32516 -0.65745,0.98228 -0.98277,0.98228 -0.13639,0 -0.57037,-0.23548 -0.9644,-0.52328 z"
         id="path13130" /><path
         style="fill:#0c1829;fill-opacity:1"
         d="m 144.33926,136.08818 c -0.26483,-0.26213 -0.0948,-1.97626 0.27003,-2.72224 0.42005,-0.8589 2.34086,-2.69968 4.19885,-4.02389 1.07635,-0.76713 1.29568,-0.85031 2.40606,-0.91241 0.89588,-0.0501 1.38214,0.0138 1.82312,0.23949 l 0.60139,0.30784 -0.89494,0.79396 c -0.64831,0.57517 -1.05558,0.79622 -1.47786,0.80212 -0.35328,0.005 -0.82365,0.20331 -1.19402,0.50358 -1.92436,1.56011 -3.16521,2.75678 -3.43164,3.30945 -0.30024,0.62281 -2.06931,1.93143 -2.30099,1.7021 z"
         id="path13129" /><path
         style="fill:#0c1829;fill-opacity:1"
         d="m 137.30472,135.58756 c -0.64144,-0.42759 -1.01024,-0.82394 -1.14626,-1.23192 -0.31723,-0.95145 -3.85973,-3.77444 -4.73646,-3.77444 -0.47644,0 -2.07593,-1.20681 -2.07593,-1.56629 0,-0.32822 1.03225,-0.61569 2.21083,-0.61569 0.9265,0 1.18399,0.0876 2.13102,0.72533 1.78167,1.1997 3.9882,3.15523 4.42316,3.91999 0.22481,0.39529 0.4618,1.06541 0.52662,1.48916 0.12173,0.79568 -0.0105,1.68427 -0.25055,1.68427 -0.0752,0 -0.5623,-0.28369 -1.08243,-0.63041 z"
         id="path13128" /><path
         style="fill:#0c1829;fill-opacity:1"
         d="m 168.19778,134.73747 c -1.41446,-1.0059 -4.03902,-2.85199 -5.83235,-4.10244 l -3.2606,-2.27353 v -2.54769 -2.54769 l 0.50516,0.32149 c 0.44214,0.28138 3.66002,2.47572 10.79214,7.35939 3.86446,2.64616 4.86143,3.36252 4.86468,3.49547 0.003,0.12983 -4.13987,2.14682 -4.37833,2.13154 -0.0654,-0.004 -1.27624,-0.83064 -2.6907,-1.83654 z"
         id="path13127" /><path
         style="fill:#0c1829;fill-opacity:1"
         d="m 109.56549,135.59876 c -1.02861,-0.5095 -1.91943,-0.97626 -1.9796,-1.03725 -0.14108,-0.14301 0.99021,-0.98036 5.50308,-4.07319 2.02065,-1.38483 4.41789,-3.0331 5.32718,-3.66281 4.2927,-2.97284 4.90224,-3.36162 5.13303,-3.27396 0.18615,0.0707 0.25223,0.62463 0.26764,2.24349 0.0112,1.18228 -0.0489,2.25504 -0.13359,2.38392 -0.27102,0.41224 -11.68546,8.3904 -11.97198,8.36785 -0.15155,-0.0119 -1.11714,-0.43855 -2.14576,-0.94805 z"
         id="path13126" /><path
         style="fill:#0c1829;fill-opacity:1"
         d="m 146.92723,139.36815 c -0.38312,-0.15724 -0.66737,-0.37804 -0.63167,-0.49067 0.11628,-0.36679 1.81627,-1.38666 2.31343,-1.38789 0.57248,-0.001 0.93613,-0.23427 2.90423,-1.85963 0.89052,-0.73544 1.5778,-1.4616 1.72097,-1.81832 0.24321,-0.60596 1.75243,-2.11656 2.12937,-2.13131 0.24442,-0.01 0.4287,0.57801 0.43223,1.37819 0.004,0.954 -0.52414,2.11894 -1.3369,2.94768 -1.15239,1.17506 -3.42828,2.95142 -4.26332,3.32758 -0.89726,0.40419 -2.33048,0.41926 -3.26834,0.0344 z"
         id="path13125" /><path
         style="fill:#0c1829;fill-opacity:1"
         d="m 132.88654,139.44725 c -0.58567,-0.18612 -4.05487,-2.87967 -4.70076,-3.64975 -0.68085,-0.81178 -1.03592,-1.8322 -1.04003,-2.98892 -0.002,-0.62504 0.071,-1.13644 0.16282,-1.13644 0.36044,0 2.22119,1.67321 2.22119,1.99732 0,0.35683 2.22114,2.4455 3.53189,3.32125 0.41162,0.27502 0.93328,0.50003 1.15924,0.50003 0.52099,0 2.19748,1.0974 2.19748,1.43843 0,0.59061 -2.26024,0.92216 -3.53183,0.51808 z"
         id="path13124" /><path
         style="fill:#c3a962;fill-opacity:1"
         d="m 140.47019,140.66841 c -0.39834,-0.23357 -0.85299,-0.58523 -1.01032,-0.78147 -0.15734,-0.19623 -0.53863,-0.48223 -0.84732,-0.63554 -0.3087,-0.15331 -1.44341,-0.85951 -2.52159,-1.56932 -2.31745,-1.52569 -2.68663,-2.00045 -2.04752,-2.63307 0.51926,-0.51399 1.07116,-0.3064 3.16358,1.18994 l 2.06352,1.47567 1.00789,-0.52106 1.00788,-0.52106 1.00286,0.51846 1.00286,0.51845 2.31334,-1.5732 c 2.40427,-1.63504 2.80721,-1.75883 3.22285,-0.99009 0.10652,0.19702 0.14257,0.51761 0.0801,0.71243 -0.12494,0.38967 -3.11777,2.48767 -4.62823,3.24444 -0.52563,0.26335 -1.00264,0.60991 -1.06002,0.77015 -0.0871,0.24335 -1.74643,1.29138 -1.95862,1.23709 -0.0368,-0.009 -0.39291,-0.20825 -0.79126,-0.44182 z"
         id="path13123" /><path
         style="fill:#0c1829;fill-opacity:1"
         d="m 167.5297,140.52145 c -1.37777,-1.01684 -3.89052,-2.83069 -5.58388,-4.03078 -1.69337,-1.20009 -3.27865,-2.34594 -3.52285,-2.54634 l -0.44401,-0.36436 1.90613,-1.13574 c 1.04837,-0.62467 1.97185,-1.13575 2.05216,-1.13575 0.13549,0 4.13937,2.79532 7.22494,5.04412 l 1.33179,0.97063 v 2.53848 c 0,1.91754 -0.0562,2.53482 -0.22962,2.52351 -0.12629,-0.008 -1.35689,-0.84693 -2.73466,-1.86377 z"
         id="path13122" /><path
         style="fill:#0c1829;fill-opacity:1"
         d="m 112.37937,142.27359 c -0.0644,-0.0637 -0.11703,-1.19415 -0.11703,-2.51208 0,-2.72022 -0.1588,-2.40523 1.9288,-3.82595 0.70723,-0.48131 2.22576,-1.5642 3.37451,-2.40644 1.14875,-0.84224 2.36977,-1.69553 2.71338,-1.89621 l 0.62474,-0.36487 1.4666,0.88392 c 2.21954,1.33771 2.34718,1.44959 2.0159,1.76689 -0.21492,0.20586 -8.2632,5.94629 -11.31804,8.07258 -0.3145,0.21891 -0.62449,0.34588 -0.68886,0.28216 z"
         id="path13121" /><path
         style="fill:#c3a962;fill-opacity:1"
         d="m 165.71788,142.87422 c 0,-1.48763 0.0715,-2.47418 0.17929,-2.47418 0.18942,0 3.25166,2.12176 3.39608,2.35307 0.0828,0.13265 -2.78794,2.29619 -3.3098,2.49441 -0.22361,0.0849 -0.26557,-0.29004 -0.26557,-2.3733 z"
         id="path13120" /><path
         style="fill:#c3a962;fill-opacity:1"
         d="m 115.20147,144.20068 c -0.95981,-0.69341 -1.76491,-1.32082 -1.78911,-1.39425 -0.0242,-0.0734 0.76111,-0.68318 1.74512,-1.35503 l 1.7891,-1.22153 0.0538,1.25868 c 0.0296,0.69227 0.0296,1.86937 0,2.61577 l -0.0538,1.3571 z"
         id="path13119" /><path
         style="fill:#c3a962;fill-opacity:1"
         d="m 145.45644,146.46739 c -0.0708,-0.0701 -0.12882,-0.4303 -0.12882,-0.80037 0,-0.58356 -0.0975,-0.73673 -0.73478,-1.15417 -0.7315,-0.47917 -0.73479,-0.48659 -0.73479,-1.65837 0,-1.17547 9.9e-4,-1.17765 0.73479,-1.63618 0.52508,-0.3281 0.73478,-0.58398 0.73478,-0.89657 0,-0.61249 0.18148,-1.01266 0.45924,-1.01266 0.27628,0 0.45924,0.39957 0.45924,1.00292 0,0.30074 0.23175,0.58137 0.78071,0.9454 0.69495,0.46083 0.78708,0.60536 0.83872,1.31571 0.0864,1.18869 -0.0637,1.5305 -0.86856,1.97828 -0.64841,0.36073 -0.73663,0.49214 -0.78652,1.1716 -0.0537,0.7307 -0.41123,1.08371 -0.75401,0.74441 z"
         id="path13118" /><path
         style="fill:#c3a962;fill-opacity:1"
         d="m 136.63268,146.46139 c -0.0674,-0.0667 -0.12247,-0.41502 -0.12247,-0.77411 0,-0.57935 -0.0931,-0.70855 -0.82663,-1.14712 l -0.82663,-0.49424 v -1.17275 -1.17276 l 0.78071,-0.42536 c 0.67541,-0.36799 0.79309,-0.52311 0.87255,-1.15007 0.0726,-0.57318 0.16867,-0.72471 0.45924,-0.72471 0.29242,0 0.37909,0.14013 0.4247,0.6867 0.0479,0.5742 0.17582,0.76075 0.78071,1.13872 0.71827,0.44883 0.7234,0.46023 0.7234,1.60749 0,1.1466 -0.006,1.15916 -0.73478,1.63679 -0.60951,0.39925 -0.73479,0.58318 -0.73479,1.07878 0,0.75142 -0.44428,1.2608 -0.79601,0.91264 z"
         id="path13117" /><path
         style="fill:#0c1829;fill-opacity:1"
         d="m 173.52497,149.36963 c -1.01033,-0.45126 -1.94029,-0.90475 -2.06658,-1.00777 -0.17437,-0.14223 -0.22962,-1.49672 -0.22962,-5.62884 v -5.44155 l 2.09069,-0.9912 c 1.14988,-0.54516 2.18317,-0.9912 2.2962,-0.9912 0.1482,0 0.20551,2.07877 0.20551,7.45508 0,5.85062 -0.0494,7.45195 -0.22962,7.44051 -0.12629,-0.008 -1.05625,-0.38378 -2.06658,-0.83503 z"
         id="path13116" /><path
         style="fill:#0c1829;fill-opacity:1"
         d="m 107.05761,150.09796 c -0.0673,-0.0667 -0.12246,-3.38311 -0.12246,-7.36987 0,-5.92689 0.0453,-7.26588 0.24864,-7.3431 0.13675,-0.0519 1.14937,0.34402 2.25028,0.87993 l 2.00163,0.97437 v 5.58444 5.58445 l -2.10262,0.9055 c -1.15644,0.49803 -2.11396,0.90551 -2.12781,0.90551 -0.0139,0 -0.0803,-0.0546 -0.14766,-0.12123 z"
         id="path13115" /><path
         style="fill:#c3a962;fill-opacity:1"
         d="m 134.07913,150.62831 c -0.34075,-0.38225 -0.18744,-0.88121 0.43626,-1.41979 0.73512,-0.63479 3.52065,-2.55707 4.19918,-2.89784 0.35361,-0.17758 0.70957,-0.43549 0.79103,-0.57311 0.0815,-0.13763 0.53648,-0.44504 1.01117,-0.68315 l 0.86309,-0.43291 0.86541,0.43535 c 0.47598,0.23944 0.95594,0.60277 1.06658,0.8074 0.11063,0.20462 0.38884,0.44268 0.61824,0.52901 0.55477,0.20878 4.60085,2.84731 4.88387,3.18487 0.15395,0.18361 0.17025,0.42081 0.053,0.77131 -0.35206,1.05253 -1.3825,0.68629 -4.45651,-1.58394 l -0.98433,-0.72696 -0.97528,0.54482 c -0.5364,0.29966 -1.05632,0.54483 -1.15538,0.54483 -0.0991,0 -0.56673,-0.24271 -1.03929,-0.53936 l -0.8592,-0.53935 -2.12545,1.44851 c -1.169,0.79668 -2.30169,1.44851 -2.51709,1.44851 -0.2154,0 -0.51929,-0.14319 -0.6753,-0.3182 z"
         id="path13114" /><path
         style="fill:#0c1829;fill-opacity:1"
         d="m 154.32873,153.38774 c -0.45465,-0.3555 -0.96333,-0.95773 -1.13041,-1.33829 -0.19722,-0.44922 -0.84157,-1.13619 -1.83696,-1.95848 -1.7608,-1.45458 -2.15263,-1.6901 -2.81175,-1.6901 -0.45284,0 -2.30351,-1.19612 -2.30351,-1.4888 0,-0.34814 1.25645,-0.76885 2.2962,-0.76885 1.40016,0 1.87321,0.24877 4.34789,2.28648 2.32852,1.91734 2.72441,2.55564 2.72441,4.39253 0,1.4343 -0.11187,1.4835 -1.28587,0.56551 z"
         id="path13113" /><path
         style="fill:#0c1829;fill-opacity:1"
         d="m 127.07489,153.47964 c -0.12886,-0.63776 0.13418,-1.97866 0.5273,-2.68804 0.40899,-0.73802 0.76698,-1.09417 2.78631,-2.77206 2.43139,-2.02027 3.37886,-2.31729 5.36583,-1.68208 0.51677,0.1652 0.93958,0.36526 0.93958,0.44457 0,0.0793 -0.47388,0.4801 -1.05306,0.89063 -0.70387,0.49891 -1.17842,0.71528 -1.4311,0.65251 -0.21021,-0.0522 -0.65541,0.0731 -1.00286,0.28221 -1.13554,0.68356 -3.34214,2.78135 -3.70368,3.52106 -0.32137,0.65753 -1.72903,1.90923 -2.14711,1.90923 -0.0926,0 -0.2192,-0.25111 -0.28121,-0.55803 z"
         id="path13112" /><path
         style="fill:#0c1829;fill-opacity:1"
         d="m 160.37405,153.52374 c -0.85247,-0.47302 -1.74552,-0.99563 -1.98455,-1.16135 l -0.43459,-0.30131 2.64154,-1.91669 c 8.17106,-5.92887 9.63457,-6.96226 9.75976,-6.89136 0.0758,0.0429 0.13777,1.21078 0.13777,2.59525 v 2.51722 l -4.08724,2.89573 c -2.24798,1.59266 -4.17622,2.94677 -4.28499,3.00914 -0.10876,0.0624 -0.89523,-0.27361 -1.7477,-0.74663 z"
         id="path13111" /><path
         style="fill:#0c1829;fill-opacity:1"
         d="m 116.51632,151.38652 -4.25398,-3.01479 v -2.42942 c 0,-1.39491 0.0769,-2.47645 0.18051,-2.53985 0.0993,-0.0607 1.27723,0.68454 2.61767,1.65618 1.34043,0.97163 3.75976,2.70705 5.37629,3.85648 3.21156,2.28357 4.31762,3.12661 4.31542,3.28918 -7.9e-4,0.0583 -0.18678,0.19618 -0.41331,0.30647 -0.22654,0.11029 -1.07319,0.58017 -1.88145,1.04418 -0.80827,0.46401 -1.51853,0.84426 -1.57837,0.845 -0.0598,7.5e-4 -2.02309,-1.3553 -4.36278,-3.01343 z"
         id="path13110" /><path
         style="fill:#c3a962;fill-opacity:1"
         d="m 157.43541,155.62426 -1.02647,-0.95021 0.0784,-1.13644 c 0.0431,-0.62505 0.15436,-1.13645 0.24721,-1.13645 0.20444,0 3.39705,1.76464 3.97858,2.19907 l 0.41426,0.30947 -1.13761,0.83679 c -0.62569,0.46024 -1.22542,0.83481 -1.33275,0.83238 -0.10732,-0.002 -0.65704,-0.432 -1.22161,-0.95461 z"
         id="path13109" /><path
         style="fill:#c3a962;fill-opacity:1"
         d="m 122.76976,155.76296 c -0.62641,-0.45118 -1.13893,-0.85347 -1.13893,-0.89398 0,-0.10989 4.18528,-2.46782 4.38034,-2.46782 0.0923,0 0.21249,0.5114 0.26697,1.13645 l 0.0991,1.13644 -1.04139,0.95429 c -0.57276,0.52486 -1.12818,0.95443 -1.23425,0.95461 -0.10608,1.8e-4 -0.70539,-0.36882 -1.3318,-0.81999 z"
         id="path13108" /><path
         style="fill:#0c1829;fill-opacity:1"
         d="m 149.82818,157.16024 c -1.02034,-0.48218 -4.27914,-3.23181 -4.94442,-4.17187 -0.44025,-0.62211 -0.56479,-1.01365 -0.62624,-1.96896 -0.0422,-0.65585 -0.005,-1.26137 0.0834,-1.34561 0.28991,-0.27738 2.0497,1.05876 2.27179,1.72487 0.27621,0.82842 4.0191,3.91179 4.7485,3.91179 0.32426,0 0.80833,0.27056 1.38906,0.77639 0.80334,0.69973 0.86153,0.8009 0.5893,1.02454 -0.51411,0.42235 -2.65792,0.45217 -3.51138,0.0488 z"
         id="path13107" /><path
         style="fill:#0c1829;fill-opacity:1"
         d="m 129.72615,157.21894 -0.63025,-0.28209 0.78886,-0.79563 c 0.61567,-0.62095 0.96867,-0.82232 1.60777,-0.91719 0.62638,-0.093 1.10732,-0.35981 2.04573,-1.13502 1.98935,-1.64337 2.5813,-2.26006 2.70515,-2.81821 0.11529,-0.51958 1.55659,-1.76449 2.05434,-1.77441 0.58595,-0.0117 0.50458,2.02892 -0.13001,3.26018 -0.35601,0.69076 -3.08405,3.13022 -4.64115,4.15021 -0.88507,0.57976 -2.84321,0.7406 -3.80044,0.31216 z"
         id="path13106" /><path
         style="fill:#c3a962;fill-opacity:1"
         d="m 156.30346,160.7263 -1.79103,-1.46409 -0.006,-1.11216 c -0.007,-1.27698 -0.0264,-1.30641 -1.9836,-3.01559 -1.64873,-1.43978 -1.8092,-1.69913 -1.41749,-2.29089 0.54767,-0.82737 0.99689,-0.60368 4.13258,2.05779 l 2.94567,2.50018 10e-4,2.40927 c 7.9e-4,1.32509 -0.0192,2.40258 -0.0445,2.39441 -0.0253,-0.008 -0.85189,-0.67368 -1.83696,-1.47892 z"
         id="path13105" /><path
         style="fill:#c3a962;fill-opacity:1"
         d="m 124.5714,159.83899 0.001,-2.43745 2.03141,-1.7274 c 3.44789,-2.93188 3.9067,-3.27144 4.42136,-3.27222 0.2738,-4.2e-4 0.53413,0.12468 0.59701,0.28688 0.2988,0.77075 0.0938,1.11014 -1.5344,2.53999 l -1.6459,1.44543 -0.007,1.21831 -0.007,1.21831 -1.60734,1.31244 c -0.88404,0.72185 -1.752,1.43411 -1.92881,1.5828 -0.30376,0.25547 -0.32139,0.13613 -0.32004,-2.16709 z"
         id="path13104" /><path
         style="fill:#0c1829;fill-opacity:1"
         d="m 159.10483,159.86229 v -2.53965 l 1.27374,-0.86969 c 0.70056,-0.47833 2.25049,-1.57116 3.4443,-2.42852 1.19381,-0.85735 3.3032,-2.35431 4.68754,-3.32658 l 2.51698,-1.76775 0.6977,0.34989 c 0.38374,0.19245 1.33819,0.61281 2.12101,0.93415 0.78282,0.32134 1.46554,0.65188 1.51715,0.73454 0.0516,0.0827 -0.71287,0.70549 -1.69885,1.38407 -1.89956,1.30731 -4.38408,3.04966 -10.54451,7.39465 -2.08561,1.47099 -3.8422,2.67453 -3.90354,2.67453 -0.0613,0 -0.11152,-1.14284 -0.11152,-2.53964 z"
         id="path13103" /><path
         style="fill:#0c1829;fill-opacity:1"
         d="m 117.77322,158.41338 c -5.3596,-3.81472 -8.53427,-6.04502 -9.7226,-6.83041 -0.30262,-0.20001 -0.55341,-0.44812 -0.55731,-0.55134 -0.006,-0.16117 0.82962,-0.56456 3.78734,-1.82813 l 0.57973,-0.24767 4.10452,2.93479 c 2.25748,1.61413 4.90407,3.49548 5.8813,4.18079 l 1.77678,1.24601 0.0886,1.13306 c 0.15271,1.95206 0.0468,3.95186 -0.20916,3.95106 -0.0696,-2.2e-4 -2.64774,-1.79489 -5.72924,-3.98816 z"
         id="path1-6" /></g></g></svg>
